<?xml version="1.0" standalone="no"?>
<!DOCTYPE svg PUBLIC "-//W3C//DTD SVG 20010904//EN"
 "http://www.w3.org/TR/2001/REC-SVG-20010904/DTD/svg10.dtd">
<svg version="1.0" xmlns="http://www.w3.org/2000/svg"
 width="16.000000pt" height="16.000000pt" viewBox="0 0 16.000000 16.000000"
 preserveAspectRatio="xMidYMid meet">
<metadata>
Created by potrace 1.11, written by Peter Selinger 2001-2013
</metadata>
<g transform="translate(0.000000,16.000000) scale(0.004167,-0.004167)"
fill="#000000" stroke="none">
<path d="M2704 3054 c-16 -7 -46 -15 -65 -17 -18 -3 -35 -6 -36 -7 -4 -3 -12
-5 -58 -15 -22 -4 -51 -15 -65 -24 -14 -9 -36 -22 -51 -30 -27 -13 -94 -115
-85 -130 3 -4 -4 -18 -15 -29 -11 -12 -17 -22 -13 -22 3 0 1 -7 -6 -15 -7 -8
-9 -15 -5 -15 4 0 3 -6 -2 -12 -12 -15 -32 -73 -39 -114 -3 -15 -11 -42 -19
-60 -8 -19 -12 -34 -10 -34 2 0 -2 -18 -10 -40 -23 -66 -31 -130 -34 -263 0
-43 -5 -76 -9 -73 -5 3 -19 7 -33 10 -13 3 -37 9 -54 15 -92 30 -163 51 -185
55 -14 2 -47 12 -75 21 -27 10 -55 18 -62 19 -7 1 -16 5 -19 9 -4 4 -17 7 -29
7 -11 0 -26 5 -33 12 -6 6 -24 13 -39 14 -78 8 -112 13 -153 25 -25 7 -54 14
-65 16 -11 2 -42 10 -70 18 -27 8 -68 20 -90 26 -22 6 -48 15 -58 21 -22 11
-244 70 -269 71 -10 1 -18 4 -18 8 0 4 -16 6 -35 4 -20 -1 -53 3 -75 8 -40 11
-150 -7 -150 -25 0 -4 -6 -8 -13 -8 -7 0 -21 -6 -31 -13 -17 -12 -18 -34 -18
-259 -1 -135 1 -249 4 -254 7 -14 1 -386 -6 -414 -4 -14 -10 -91 -13 -172 l-6
-147 39 -17 c21 -10 47 -18 57 -19 46 -5 40 -36 -8 -41 -82 -9 -190 -27 -215
-37 -8 -3 -42 -8 -76 -11 -33 -3 -85 -12 -115 -20 -30 -8 -101 -28 -159 -43
l-105 -29 -3 -502 -2 -502 1078 0 c763 0 1081 3 1089 11 8 8 13 8 17 0 5 -8
104 -11 313 -11 274 0 308 2 325 17 18 16 18 16 12 0 -5 -15 2 -17 63 -17 l69
0 -3 127 c-3 185 -13 315 -26 338 -6 11 -12 25 -12 30 -1 6 -5 17 -9 26 -5 11
3 36 22 71 16 30 27 64 26 75 -3 20 -1 21 33 11 32 -9 80 -7 148 5 11 2 37 11
58 20 20 9 41 17 45 18 4 0 24 10 45 21 22 11 45 17 52 14 40 -15 78 200 49
281 -15 41 -84 113 -109 113 -6 0 -30 9 -53 20 -48 23 -101 31 -119 17 -15
-11 28 91 59 141 11 17 16 32 12 32 -4 0 -3 5 3 11 6 6 9 18 6 25 -3 8 -1 14
4 14 5 0 15 23 22 50 7 28 20 54 28 58 8 5 14 12 13 16 -4 15 20 66 30 66 6 0
8 5 5 10 -3 6 -2 10 4 10 6 0 8 6 5 14 -3 7 5 20 18 28 27 18 108 95 108 104
0 6 51 76 61 84 4 3 16 25 28 50 12 25 32 63 45 85 42 76 51 123 50 260 -1
153 -6 209 -29 290 -9 33 -18 65 -19 71 -1 7 -7 18 -13 25 -6 8 -20 35 -32 61
-11 26 -26 50 -31 53 -6 4 -8 10 -5 14 9 16 -130 137 -190 166 -33 15 -62 31
-65 35 -3 3 -21 12 -40 19 -19 7 -51 20 -70 29 -19 8 -41 15 -47 15 -7 0 -13
3 -13 7 0 7 -10 8 -135 16 -55 3 -107 8 -115 11 -29 11 -75 10 -106 -3z m-470
-1126 c14 -26 26 -54 26 -63 0 -8 7 -18 15 -21 8 -4 12 -11 9 -16 -4 -6 -2
-13 3 -17 6 -3 33 -33 60 -66 28 -33 64 -74 81 -92 l31 -32 -27 -33 c-15 -18
-31 -38 -37 -43 -21 -22 -175 -108 -182 -102 -2 2 -6 15 -9 28 -8 35 -10 519
-2 511 3 -4 18 -28 32 -54z m113 -480 c-14 -18 -32 -32 -40 -30 -9 1 -18 -2
-22 -8 -3 -5 -16 -10 -29 -10 -12 0 -26 -3 -32 -7 -5 -5 -5 -3 1 4 8 10 132
80 144 82 2 1 -8 -14 -22 -31z m474 -1225 c1 -38 3 -78 4 -91 2 -21 -1 -20
-36 14 -22 21 -39 41 -39 44 0 4 9 17 20 30 11 13 23 34 26 47 12 45 24 22 25
-44z"/>
</g>
</svg>
